# xmcd
#
# Track frame offsets:
#	183
#	10020
#	19710
#	29308
#	41660
#	51468
#	61408
#	70813
#	82575
#	94530
#	103080
#	115518
#	124758
#	133590
#	143550
#	156298
#	167003
#	179433
#	188440
#	197473
#
# Disc length: 2750
#
# Revision: 2
# Processed by: cddbd v1.5.1PL0 Copyright (c) Steve Scherf et al.
# Submitted via: CDmax 1.8
# Normalized: r1:TDELIM( - )
#
DISCID=f90abc14
DTITLE=Various Artist - Authentic Blues, Rockabilly, Rock and Roll Volume 3
DYEAR=1996
DGENRE=Blues
TTITLE0=Carl Perkins - Matchbox
TTITLE1=Roy Orbison - Go! Go! Go!
TTITLE2=Charlie Rich - Lonely Weekends
TTITLE3=Jerry Lee Lewis - Breathless
TTITLE4=Jimmy Wages - Mad man
TTITLE5=Johnny Cash - Ballad of a teenage queen
TTITLE6=Billy Lee Riley - Flying saucers rock 'n' roll
TTITLE7=Dick Penner - Fine little baby
TTITLE8=Carl Mann - Pretend
TTITLE9=Jerry Lee Lewis - Great balls of fire
TTITLE10=Carl Perkins - Your true love
TTITLE11=Glenn Honeycutt - All night rock
TTITLE12=Roy Orbison - Mean little mama
TTITLE13=Gene Simmons - Crazy woman
TTITLE14=Carl Perkins - Boppin' the blues
TTITLE15=Malcolm Yelvington - Rockin with my baby
TTITLE16=Johnny Cash - I walk the line
TTITLE17=Luke McDaniel - My baby don't rock
TTITLE18=Eddie Bond - Rockin' daddy
TTITLE19=Warren Smith - Ubangi stomp
EXTD=
EXTT0=
EXTT1=
EXTT2=
EXTT3=
EXTT4=
EXTT5=
EXTT6=
EXTT7=
EXTT8=
EXTT9=
EXTT10=
EXTT11=
EXTT12=
EXTT13=
EXTT14=
EXTT15=
EXTT16=
EXTT17=
EXTT18=
EXTT19=
PLAYORDER=
